<?xml version="1.0" encoding="UTF-8"?><svg width="78" height="48" viewBox="0 0 78 48" xmlns="http://www.w3.org/2000/svg" xmlns:xlink="http://www.w3.org/1999/xlink"><svg viewBox="0 0 576 512" width="27" height="24" id="cart" x="30" xmlns="http://www.w3.org/2000/svg"><path d="M0 24C0 10.7 10.7 0 24 0h45.5c22 0 41.5 12.8 50.6 32h411c26.3 0 45.5 25 38.6 50.4l-41 152.3c-8.5 31.4-37 53.3-69.5 53.3H170.7l5.4 28.5c2.2 11.3 12.1 19.5 23.6 19.5H488c13.3 0 24 10.7 24 24s-10.7 24-24 24H199.7c-34.6 0-64.3-24.6-70.7-58.5l-51.6-271c-.7-3.8-4-6.5-7.9-6.5H24C10.7 48 0 37.3 0 24zm128 440a48 48 0 1 1 96 0 48 48 0 1 1-96 0zm336-48a48 48 0 1 1 0 96 48 48 0 1 1 0-96z" fill="#333"/></svg><svg viewBox="0 0 512 512" width="24" height="24" id="filter" x="27" y="24" xmlns="http://www.w3.org/2000/svg"><path d="M3.9 54.9C10.5 40.9 24.5 32 40 32h432c15.5 0 29.5 8.9 36.1 22.9s4.6 30.5-5.2 42.5L320 320.9V448c0 12.1-6.8 23.2-17.7 28.6s-23.8 4.3-33.5-3l-64-48c-8.1-6-12.8-15.5-12.8-25.6v-79.1L9 97.3C-.7 85.4-2.8 68.8 3.9 54.9z" fill="#333"/></svg><svg viewBox="0 0 576 512" width="27" height="24" id="home" y="24" xmlns="http://www.w3.org/2000/svg"><path d="M575.8 255.5c0 18-15 32.1-32 32.1h-32l.7 160.2c0 2.7-.2 5.4-.5 8.1V472c0 22.1-17.9 40-40 40h-16c-1.1 0-2.2 0-3.3-.1-1.4.1-2.8.1-4.2.1H392c-22.1 0-40-17.9-40-40v-88c0-17.7-14.3-32-32-32h-64c-17.7 0-32 14.3-32 32v88c0 22.1-17.9 40-40 40h-55.9c-1.5 0-3-.1-4.5-.2-1.2.1-2.4.2-3.6.2h-16c-22.1 0-40-17.9-40-40V360c0-.9 0-1.9.1-2.8v-69.6H32c-18 0-32-14-32-32.1 0-9 3-17 10-24L266.4 8c7-7 15-8 22-8s15 2 21 7l255.4 224.5c8 7 12 15 11 24z" fill="#333"/></svg><svg viewBox="0 0 640 512" width="30" height="24" id="truck" xmlns="http://www.w3.org/2000/svg"><path d="M112 0C85.5 0 64 21.5 64 48v48H16c-8.8 0-16 7.2-16 16s7.2 16 16 16h256c8.8 0 16 7.2 16 16s-7.2 16-16 16H48c-8.8 0-16 7.2-16 16s7.2 16 16 16h192c8.8 0 16 7.2 16 16s-7.2 16-16 16H16c-8.8 0-16 7.2-16 16s7.2 16 16 16h192c8.8 0 16 7.2 16 16s-7.2 16-16 16H64v128c0 53 43 96 96 96s96-43 96-96h128c0 53 43 96 96 96s96-43 96-96h32c17.7 0 32-14.3 32-32s-14.3-32-32-32V237.3c0-17-6.7-33.3-18.7-45.3L512 114.7c-12-12-28.3-18.7-45.3-18.7H416V48c0-26.5-21.5-48-48-48H112zm432 237.3V256H416v-96h50.7l77.3 77.3zM160 464c-26.5 0-48-21.5-48-48s21.5-48 48-48 48 21.5 48 48-21.5 48-48 48zm368-48c0 26.5-21.5 48-48 48s-48-21.5-48-48 21.5-48 48-48 48 21.5 48 48z" fill="#1a1a1a"/></svg><svg viewBox="0 0 448 512" width="21" height="24" id="user" x="57" xmlns="http://www.w3.org/2000/svg"><path d="M224 256c70.7 0 128-57.3 128-128S294.7 0 224 0 96 57.3 96 128s57.3 128 128 128zm-45.7 48C79.8 304 0 383.8 0 482.3 0 498.7 13.3 512 29.7 512h388.6c16.4 0 29.7-13.3 29.7-29.7 0-98.5-79.8-178.3-178.3-178.3h-91.4z" fill="#333"/></svg></svg>