<?xml version="1.0" encoding="UTF-8"?><svg width="38" height="32" viewBox="0 0 38 32" xmlns="http://www.w3.org/2000/svg" xmlns:xlink="http://www.w3.org/1999/xlink"><svg viewBox="0 0 576 512" width="18" height="16" id="star" x="20" xmlns="http://www.w3.org/2000/svg"><path d="M316.9 18c-5.3-11-16.5-18-28.8-18s-23.4 7-28.8 18L195 150.3 51.4 171.5c-12 1.8-22 10.2-25.7 21.7s-.7 24.2 7.9 32.7L137.8 329l-24.6 145.7c-2 12 3 24.2 12.9 31.3s23 8 33.8 2.3l128.3-68.5 128.3 68.5c10.8 5.7 23.9 4.9 33.8-2.3s14.9-19.3 12.9-31.3L438.5 329l104.2-103.1c8.6-8.5 11.7-21.2 7.9-32.7s-13.7-19.9-25.7-21.7l-143.7-21.2L316.9 18z" fill="#fc0"/></svg><svg viewBox="0 0 576 512" width="18" height="16" id="star-empty" y="16" xmlns="http://www.w3.org/2000/svg"><path d="M287.9 0c9.2 0 17.6 5.2 21.6 13.5l68.6 141.3 153.2 22.6c9 1.3 16.5 7.6 19.3 16.3s.5 18.1-5.9 24.5L433.6 328.4 459.8 484c1.5 9-2.2 18.1-9.6 23.5s-17.3 6-25.3 1.7l-137-73.2L151 509.1c-8.1 4.3-17.9 3.7-25.3-1.7s-11.2-14.5-9.7-23.5l26.2-155.6L31.1 218.2c-6.5-6.4-8.7-15.9-5.9-24.5s10.3-14.9 19.3-16.3l153.2-22.6 68.6-141.3C270.4 5.2 278.7 0 287.9 0zm0 79-52.5 108.2c-3.5 7.1-10.2 12.1-18.1 13.3L99 217.9l85.9 85.1c5.5 5.5 8.1 13.3 6.8 21l-20.3 119.7 105.2-56.2c7.1-3.8 15.6-3.8 22.6 0l105.2 56.2-20.2-119.6c-1.3-7.7 1.2-15.5 6.8-21l85.9-85.1-118.3-17.5c-7.8-1.2-14.6-6.1-18.1-13.3L287.9 79z" fill="#fc0"/></svg><svg viewBox="0 0 640 512" width="20" height="16" id="star-half" xmlns="http://www.w3.org/2000/svg"><path d="m320 376.4.1-.1 26.4 14.1 85.2 45.5-16.5-97.6-4.8-28.7 20.7-20.5 70.1-69.3-96.1-14.2-29.3-4.3-12.9-26.6-42.8-87.8-.1.3v289.2zm175.1 98.3c2 12-3 24.2-12.9 31.3s-23 8-33.8 2.3l-128.3-68.5-128.3 68.5c-10.8 5.7-23.9 4.8-33.8-2.3s-14.9-19.3-12.9-31.3L169.8 329 65.6 225.9c-8.6-8.5-11.7-21.2-7.9-32.7s13.7-19.9 25.7-21.7L227 150.3 291.4 18c5.4-11 16.5-18 28.8-18s23.4 7 28.8 18l64.3 132.3 143.6 21.2c12 1.8 22 10.2 25.7 21.7s.7 24.2-7.9 32.7L470.5 329l24.6 145.7z" fill="#fc0"/></svg></svg>